<svg width="18" height="17" viewBox="0 0 18 17" fill="none" xmlns="http://www.w3.org/2000/svg">
<path d="M13.5511 3.02596H12.782C12.6208 2.23624 12.1921 1.52636 11.5681 1.01622C10.944 0.506079 10.1631 0.226939 9.35706 0.225952H7.95703C7.15103 0.226939 6.37011 0.506079 5.74609 1.01622C5.12208 1.52636 4.69324 2.23624 4.53204 3.02596H3.76404C2.83665 3.02728 1.94772 3.39662 1.29242 4.05285C0.637123 4.70908 0.269042 5.59856 0.269043 6.52596V13.515C0.273008 14.4401 0.643101 15.326 1.2984 15.9791C1.9537 16.6321 2.84091 16.9992 3.76605 17H13.5511C14.4773 16.9984 15.3651 16.6297 16.02 15.9748C16.6749 15.3199 17.0435 14.4321 17.045 13.506V6.52096C17.0437 5.59461 16.6752 4.70655 16.0203 4.05143C15.3653 3.39631 14.4774 3.02754 13.5511 3.02596ZM7.95905 1.62595H9.35907C9.7913 1.62841 10.2122 1.76417 10.5645 2.01473C10.9167 2.26529 11.183 2.61843 11.3271 3.02596H5.99304C6.13733 2.61912 6.40352 2.26664 6.75531 2.01649C7.1071 1.76634 7.52739 1.63067 7.95905 1.62795V1.62595ZM3.76605 4.42596H13.5511C14.108 4.42596 14.6422 4.6472 15.036 5.04103C15.4298 5.43486 15.6511 5.969 15.6511 6.52596V8.62595H1.66907V6.52596C1.66854 5.96917 1.88911 5.43497 2.28235 5.04079C2.67558 4.64662 3.20927 4.42475 3.76605 4.42396V4.42596ZM13.5511 15.609H3.76605C3.2091 15.609 2.67495 15.3877 2.28113 14.9939C1.8873 14.6001 1.66608 14.0659 1.66608 13.509V10.009H7.95605V10.709C7.95605 10.8946 8.0298 11.0727 8.16107 11.2039C8.29235 11.3352 8.47042 11.409 8.65607 11.409C8.84172 11.409 9.01979 11.3352 9.15106 11.2039C9.28234 11.0727 9.35608 10.8946 9.35608 10.709V10.009H15.6461V13.509C15.6455 14.0647 15.4247 14.5976 15.032 14.9908C14.6394 15.3841 14.1068 15.6056 13.5511 15.607V15.609Z" fill="#F15A24"/>
</svg>
