<svg width="18" height="17" viewBox="0 0 18 17" fill="none" xmlns="http://www.w3.org/2000/svg">
<path d="M9.60713 1.12607C9.60739 0.946429 9.67892 0.774231 9.80604 0.647298C9.93316 0.520364 10.1055 0.449071 10.2851 0.449071C12.0801 0.451189 13.8011 1.16527 15.0703 2.43465C16.3395 3.70403 17.0533 5.42504 17.0551 7.22007C17.0551 7.39963 16.9838 7.57182 16.8568 7.69878C16.7299 7.82574 16.5577 7.89708 16.3781 7.89708C16.1986 7.89708 16.0264 7.82574 15.8994 7.69878C15.7725 7.57182 15.7011 7.39963 15.7011 7.22007C15.6998 5.78398 15.1288 4.40706 14.1134 3.39149C13.098 2.37592 11.7212 1.80466 10.2851 1.80307C10.1055 1.80308 9.93316 1.73178 9.80604 1.60485C9.67892 1.47791 9.60739 1.30572 9.60713 1.12607ZM10.2851 4.51108C11.0034 4.51134 11.6922 4.79687 12.2 5.30488C12.7078 5.81288 12.9931 6.50178 12.9931 7.22007C12.9931 7.39963 13.0645 7.57182 13.1914 7.69878C13.3184 7.82574 13.4906 7.89708 13.6701 7.89708C13.8497 7.89708 14.0219 7.82574 14.1488 7.69878C14.2758 7.57182 14.3471 7.39963 14.3471 7.22007C14.3461 6.143 13.9178 5.11032 13.1563 4.34862C12.3948 3.58692 11.3622 3.15839 10.2851 3.15707C10.1056 3.15707 9.93337 3.2284 9.80641 3.35536C9.67945 3.48232 9.6081 3.65452 9.6081 3.83407C9.6081 4.01362 9.67945 4.18582 9.80641 4.31279C9.93337 4.43975 10.1056 4.51108 10.2851 4.51108ZM16.4411 11.7831C16.8332 12.1767 17.0533 12.7095 17.0533 13.2651C17.0533 13.8206 16.8332 14.3535 16.4411 14.7471L15.8251 15.4571C10.2801 20.7661 -3.21487 7.27507 2.01313 1.71207L2.79115 1.03508C3.18529 0.65403 3.71347 0.443279 4.26167 0.448331C4.80986 0.453383 5.33409 0.673824 5.72114 1.06207C5.74214 1.08307 6.99714 2.71307 6.99714 2.71307C7.36936 3.10436 7.5765 3.62402 7.57557 4.16407C7.57464 4.70413 7.36571 5.22306 6.99214 5.61307L6.20814 6.59907C6.64223 7.653 7.28027 8.61076 8.08564 9.41734C8.89102 10.2239 9.84786 10.8634 10.9011 11.2991L11.8931 10.5101C12.2838 10.1372 12.8031 9.92912 13.3432 9.92912C13.8832 9.92912 14.4025 10.1372 14.7932 10.5101C14.7932 10.5101 16.4201 11.7621 16.4411 11.7831ZM15.5101 12.7671C15.5101 12.7671 13.8891 11.5211 13.8681 11.5001C13.7288 11.3618 13.5404 11.2842 13.3441 11.2842C13.1478 11.2842 12.9595 11.3618 12.8201 11.5001C12.8011 11.5191 11.4361 12.6071 11.4361 12.6071C11.3437 12.6797 11.234 12.7271 11.1178 12.7446C11.0016 12.7621 10.8829 12.7492 10.7731 12.7071C9.40827 12.1991 8.1685 11.4037 7.13795 10.3747C6.1074 9.34571 5.31012 8.10718 4.80012 6.74307C4.75535 6.63148 4.74105 6.51 4.75862 6.39106C4.77619 6.27211 4.82504 6.15996 4.90016 6.06608C4.90016 6.06608 5.98815 4.69907 6.00715 4.68207C6.14547 4.54255 6.22303 4.35404 6.22303 4.15757C6.22303 3.96111 6.14547 3.7726 6.00715 3.63308C5.98615 3.61308 4.73915 1.99107 4.73915 1.99107C4.59773 1.86401 4.41303 1.79591 4.22297 1.80074C4.03291 1.80558 3.85189 1.88298 3.71711 2.01707L2.93812 2.69507C-0.88188 7.28807 10.8121 18.3331 14.8381 14.5291L15.4551 13.8181C15.5997 13.6843 15.6865 13.4995 15.6973 13.3028C15.7082 13.1061 15.6421 12.9129 15.5131 12.7641L15.5101 12.7671Z" fill="#F15A24"/>
</svg>
