<svg width="41" height="41" viewBox="0 0 41 41" fill="none" xmlns="http://www.w3.org/2000/svg">
<path d="M40.581 40.985H20.359C16.4086 40.9826 12.5451 39.8249 9.24446 37.6544C5.94383 35.4838 3.35021 32.3953 1.78291 28.7691C0.215617 25.1429 -0.256807 21.1375 0.423782 17.2462C1.10437 13.3549 2.9082 9.74765 5.61323 6.86871C8.31827 3.98978 11.8064 1.96492 15.6478 1.04352C19.4892 0.122116 23.5162 0.344422 27.2329 1.68305C30.9495 3.02167 34.1934 5.41815 36.5651 8.57733C38.9369 11.7365 40.3329 15.5204 40.581 19.463V40.985ZM20.359 5.54797C16.3523 5.58049 12.5209 7.19493 9.69917 10.0396C6.87748 12.8843 5.29414 16.7287 5.29414 20.7355C5.29414 24.7422 6.87748 28.5867 9.69917 31.4314C12.5209 34.2761 16.3523 35.8905 20.359 35.923H35.5179V19.7C35.2497 15.8612 33.5366 12.2666 30.7237 9.6405C27.9108 7.01444 24.2072 5.55203 20.359 5.54797V5.54797Z" fill="#F15A24"/>
<path d="M23.7061 13.985H13.5811V19.047H23.7061V13.985Z" fill="#F15A24"/>
<path d="M30.4561 24.11H13.5811V29.172H30.4561V24.11Z" fill="#F15A24"/>
</svg>
