<svg width="15" height="17" viewBox="0 0 15 17" fill="none" xmlns="http://www.w3.org/2000/svg">
<path d="M13.025 4.04005L10.625 1.64005C10.1781 1.19101 9.64665 0.835023 9.06134 0.592661C8.47603 0.350298 7.84853 0.226369 7.21503 0.228044H4.09998C3.18672 0.229103 2.3112 0.592436 1.66553 1.2383C1.01985 1.88416 0.6568 2.75979 0.656006 3.67304V13.318C0.657065 14.2311 1.02025 15.1065 1.66589 15.7522C2.31154 16.3978 3.18689 16.761 4.09998 16.762H10.99C11.9032 16.761 12.7786 16.3978 13.4244 15.7522C14.0702 15.1066 14.4337 14.2312 14.435 13.318V7.44904C14.4368 6.81585 14.3131 6.18858 14.0711 5.60346C13.8291 5.01833 13.4736 4.48697 13.025 4.04005ZM12.05 5.01405C12.2607 5.23004 12.4416 5.47318 12.588 5.73705H9.61499C9.52447 5.73718 9.43485 5.71945 9.3512 5.68487C9.26754 5.65029 9.19151 5.59955 9.1275 5.53554C9.0635 5.47153 9.01273 5.39552 8.97815 5.31187C8.94357 5.22822 8.92589 5.13856 8.92603 5.04804V2.07504C9.18973 2.22173 9.43313 2.40226 9.65002 2.61205L12.05 5.01405ZM13.06 13.3141C13.0597 13.8622 12.8419 14.3878 12.4543 14.7753C12.0667 15.1629 11.5411 15.3808 10.993 15.381H4.09998C3.55195 15.3808 3.02646 15.1629 2.63904 14.7753C2.25162 14.3877 2.034 13.8621 2.034 13.3141V3.67104C2.03334 3.39931 2.08629 3.13012 2.18982 2.87888C2.29335 2.62765 2.44542 2.39931 2.63733 2.20693C2.82924 2.01456 3.05724 1.86193 3.30823 1.75779C3.55921 1.65365 3.82824 1.60004 4.09998 1.60005H7.211C7.324 1.60005 7.43398 1.62205 7.54498 1.63205V5.04405C7.54498 5.59225 7.76275 6.118 8.15039 6.50564C8.53803 6.89328 9.0638 7.11105 9.612 7.11105H13.024C13.035 7.22305 13.057 7.33205 13.057 7.44505L13.06 13.3141Z" fill="#F15A24"/>
</svg>
