<svg width="28" height="19" viewBox="0 0 28 19" fill="none" xmlns="http://www.w3.org/2000/svg">
<path d="M1.55896 8.46008H26.22C26.5173 8.46008 26.8025 8.57819 27.0127 8.78841C27.2229 8.99864 27.3409 9.28378 27.3409 9.58109C27.3409 9.87839 27.2229 10.1635 27.0127 10.3737C26.8025 10.584 26.5173 10.7021 26.22 10.7021H1.55896C1.41175 10.7021 1.26601 10.6731 1.13 10.6168C0.993999 10.5604 0.870452 10.4778 0.766357 10.3737C0.662263 10.2697 0.579651 10.1461 0.523315 10.0101C0.46698 9.87406 0.437988 9.7283 0.437988 9.58109C0.437988 9.43387 0.46698 9.28811 0.523315 9.1521C0.579651 9.01609 0.662263 8.89251 0.766357 8.78841C0.870452 8.68432 0.993999 8.60175 1.13 8.54542C1.26601 8.48908 1.41175 8.46008 1.55896 8.46008Z" fill="#F15A24"/>
<path d="M1.55896 0.613037H26.22C26.5173 0.613037 26.8025 0.73114 27.0127 0.941368C27.2229 1.1516 27.3409 1.43673 27.3409 1.73404C27.3409 2.03135 27.2229 2.31647 27.0127 2.5267C26.8025 2.73693 26.5173 2.85504 26.22 2.85504H1.55896C1.41175 2.85504 1.26601 2.82604 1.13 2.76971C0.993999 2.71337 0.870452 2.6308 0.766357 2.5267C0.662263 2.42261 0.579651 2.29903 0.523315 2.16302C0.46698 2.02702 0.437988 1.88125 0.437988 1.73404C0.437988 1.58683 0.46698 1.44106 0.523315 1.30505C0.579651 1.16905 0.662263 1.04546 0.766357 0.941368C0.870452 0.837274 0.993999 0.754707 1.13 0.698372C1.26601 0.642036 1.41175 0.613037 1.55896 0.613037Z" fill="#F15A24"/>
<path d="M1.55896 16.306H26.22C26.5173 16.306 26.8025 16.4241 27.0127 16.6344C27.2229 16.8446 27.3409 17.1297 27.3409 17.427C27.3411 17.5743 27.3123 17.7201 27.256 17.8562C27.1997 17.9922 27.1171 18.1159 27.0129 18.22C26.9088 18.3241 26.7852 18.4067 26.6492 18.463C26.5131 18.5193 26.3672 18.5482 26.22 18.548H1.55896C1.41171 18.5482 1.26595 18.5193 1.12988 18.463C0.993818 18.4067 0.870112 18.3241 0.765992 18.22C0.661871 18.1159 0.579361 17.9922 0.523072 17.8562C0.466783 17.7201 0.437857 17.5743 0.437989 17.427C0.437989 17.2798 0.46698 17.134 0.523316 16.998C0.579651 16.862 0.662263 16.7385 0.766358 16.6344C0.870452 16.5303 0.993999 16.4477 1.13001 16.3914C1.26601 16.335 1.41175 16.306 1.55896 16.306Z" fill="#F15A24"/>
</svg>
