<svg width="20" height="19" viewBox="0 0 20 19" fill="none" xmlns="http://www.w3.org/2000/svg">
<path d="M10.141 0.0650654C8.30308 0.0662519 6.50674 0.612343 4.97914 1.6343C3.45154 2.65626 2.26125 4.1082 1.55873 5.80656C0.856208 7.50492 0.673073 9.37344 1.03236 11.1759C1.39165 12.9784 2.27726 14.6338 3.57728 15.933C4.87731 17.2322 6.53338 18.1168 8.33607 18.4749C10.1388 18.833 12.0072 18.6486 13.7051 17.945C15.403 17.2414 16.8542 16.0502 17.8751 14.5219C18.8961 12.9936 19.4411 11.197 19.4411 9.35906C19.4411 8.13805 19.2004 6.92901 18.7329 5.80102C18.2655 4.67303 17.5804 3.6482 16.7167 2.78509C15.853 1.92198 14.8278 1.23752 13.6995 0.770807C12.5712 0.304093 11.362 0.0642772 10.141 0.0650654ZM10.141 17.1041C8.60923 17.1039 7.11192 16.6495 5.83839 15.7983C4.56486 14.9472 3.57227 13.7375 2.98622 12.3223C2.40017 10.907 2.24696 9.34979 2.54591 7.84748C2.84487 6.34516 3.58259 4.96522 4.66578 3.88217C5.74898 2.79911 7.129 2.06157 8.63136 1.76281C10.1337 1.46405 11.6909 1.61748 13.1061 2.20371C14.5212 2.78994 15.7308 3.78264 16.5818 5.05628C17.4328 6.32991 17.887 7.82729 17.887 9.35906C17.8859 11.4126 17.0694 13.3817 15.6168 14.8334C14.1643 16.285 12.1946 17.1003 10.141 17.1001V17.1041Z" fill="#F15A24"/>
<path d="M10.141 7.81007H9.36694C9.26289 7.80633 9.15924 7.8236 9.06201 7.86084C8.96478 7.89807 8.87608 7.95453 8.80115 8.02681C8.72621 8.0991 8.66656 8.18574 8.62585 8.28157C8.58515 8.3774 8.56421 8.48046 8.56421 8.58458C8.56421 8.68869 8.58515 8.79174 8.62585 8.88757C8.66656 8.9834 8.72621 9.07005 8.80115 9.14234C8.87608 9.21463 8.96478 9.27107 9.06201 9.30831C9.15924 9.34555 9.26289 9.36281 9.36694 9.35907H10.141V14.0061C10.141 14.2116 10.2227 14.4087 10.368 14.5541C10.5134 14.6994 10.7105 14.7811 10.916 14.7811C11.1216 14.7811 11.3186 14.6994 11.464 14.5541C11.6093 14.4087 11.691 14.2116 11.691 14.0061V9.35907C11.691 9.15557 11.6509 8.95406 11.573 8.76606C11.4951 8.57807 11.3809 8.40726 11.2369 8.26341C11.093 8.11956 10.9222 8.00548 10.7341 7.92769C10.5461 7.84991 10.3445 7.80994 10.141 7.81007Z" fill="#F15A24"/>
<path d="M10.142 6.26101C10.7837 6.26101 11.304 5.74077 11.304 5.09901C11.304 4.45726 10.7837 3.93701 10.142 3.93701C9.50023 3.93701 8.97998 4.45726 8.97998 5.09901C8.97998 5.74077 9.50023 6.26101 10.142 6.26101Z" fill="#F15A24"/>
</svg>
